<svg width="180" height="45" viewBox="0 0 180 45" fill="none" xmlns="http://www.w3.org/2000/svg">
<g clip-path="url(#clip0_502_4184)">
<path d="M0.475364 1.21921C1.13981 2.07555 10.4844 10.9438 10.4844 10.9438C10.4844 10.9438 11.4317 11.4373 12.1103 13.8467C12.2711 14.4148 12.4963 15.2355 12.7497 16.1595C13.4094 18.5641 14.2606 21.6672 14.6691 22.831C14.3015 23.0778 14.0753 23.3245 14.1036 23.6148C12.8878 23.9487 10.9228 24.5583 10.3572 25.1243C9.88873 25.5972 11.53 25.6029 13.4695 25.6097C14.9831 25.615 16.6782 25.621 17.6944 25.8501C18.2175 25.9662 18.7688 25.9951 19.3343 25.9516L24.7489 27.0983L26.3464 29.0432L26.4736 28.8255L25.5122 26.7935C25.7809 25.8791 24.5368 23.8035 23.8441 23.0053C23.6886 22.6133 23.4906 22.3086 23.4906 22.3086C23.4906 22.3086 24.7347 20.4797 26.0354 19.4347C27.2795 18.9993 33.9239 15.0804 33.9239 15.0804C33.9239 15.0804 36.3272 11.9163 37.6137 10.1891C38.9002 8.44735 37.5995 9.14404 37.5995 9.14404L32.906 13.6435C32.906 13.6435 26.1343 16.1254 24.0703 16.706C22.3456 17.185 20.5502 18.8832 19.7585 19.9427L16.5211 12.8307L16.1252 11.7566C16.1252 11.7566 15.5174 9.55043 13.7219 8.4038C11.9265 7.25717 0.0371136 0 0.0371136 0C0.0371136 0 -0.189082 0.362858 0.475364 1.21921Z" fill="white"/>
<path fill-rule="evenodd" clip-rule="evenodd" d="M33.2886 34.5127C32.8221 34.353 32.2142 34.295 31.8891 34.295C30.5319 34.295 29.8109 34.7884 29.2172 35.1949L29.204 35.2039C28.7447 35.5183 28.4327 35.7319 27.7045 35.7319C26.9982 35.7319 26.6965 35.5309 26.2475 35.232L26.1918 35.1949L26.1549 35.1699C25.5815 34.7817 24.8622 34.295 23.5198 34.295C22.1626 34.295 21.4417 34.7884 20.8479 35.1949L20.8347 35.2039C20.3754 35.5183 20.0634 35.7319 19.3353 35.7319C18.6304 35.7319 18.3173 35.5238 17.8545 35.2161L17.8226 35.1949L17.7857 35.1699C17.2122 34.7817 16.4931 34.295 15.1507 34.295C13.7935 34.295 13.0725 34.7884 12.4787 35.1949L12.4655 35.2039C12.0063 35.5183 11.6942 35.7319 10.966 35.7319C10.2598 35.7319 9.95802 35.5309 9.50914 35.232L9.41653 35.1699C8.84308 34.7817 8.12386 34.295 6.78147 34.295C6.23012 34.295 5.87669 34.4546 5.6505 34.6289C4.06714 32.0598 3.16235 29.0118 3.16235 25.7461C3.16235 20.5064 5.50913 15.8472 9.18479 12.7847C8.56275 12.2041 7.95485 11.6817 7.27627 11.1011C3.24718 14.628 0.688354 19.8822 0.688354 25.7461C0.688354 36.3706 9.07169 44.9631 19.4059 44.9631C26.1918 44.9631 32.1435 41.2619 35.4092 35.7029C35.2916 35.6274 35.1748 35.5506 35.058 35.4738C34.501 35.1075 33.9431 34.7406 33.2886 34.5127ZM8.34515 36.4246C8.91861 36.8126 9.63782 37.2994 10.9802 37.2994C12.3373 37.2994 13.0584 36.806 13.6522 36.3995L13.6653 36.3906C14.1246 36.0762 14.4366 35.8626 15.1648 35.8626C15.8697 35.8626 16.1827 36.0706 16.6456 36.3783L16.6774 36.3995L16.7144 36.4246C17.2878 36.8126 18.007 37.2994 19.3494 37.2994C20.7066 37.2994 21.4276 36.806 22.0213 36.3995L22.0346 36.3906C22.4938 36.0762 22.8059 35.8626 23.534 35.8626C24.2403 35.8626 24.5421 36.0635 24.9909 36.3625L25.0467 36.3995L25.0835 36.4246C25.657 36.8126 26.3762 37.2994 27.7186 37.2994C29.0758 37.2994 29.7967 36.806 30.3905 36.3995L30.4037 36.3906C30.863 36.0762 31.175 35.8626 31.9032 35.8626C32.0239 35.8626 32.1756 35.8519 32.3494 35.8398L32.4404 35.8335C31.9314 36.5302 31.3801 37.1688 30.7723 37.7784C30.0937 37.9526 29.6271 38.2719 29.2312 38.5477L29.218 38.5567C28.7589 38.8711 28.4467 39.0847 27.7186 39.0847C27.0123 39.0847 26.7105 38.8838 26.2617 38.5848L26.2059 38.5477L26.169 38.5227C25.5956 38.1346 24.8764 37.6478 23.534 37.6478C22.1768 37.6478 21.4559 38.1413 20.8621 38.5477L20.8489 38.5567C20.3896 38.8711 20.0776 39.0847 19.3494 39.0847C18.6445 39.0847 18.3315 38.8766 17.8687 38.5689L17.8367 38.5477L17.7999 38.5227C17.2264 38.1346 16.5072 37.6478 15.1648 37.6478C13.8076 37.6478 13.0867 38.1413 12.4929 38.5477L12.4797 38.5567C12.0204 38.8711 11.7084 39.0847 10.9802 39.0847C10.2739 39.0847 9.97215 38.8838 9.52327 38.5848L9.46752 38.5477L9.39256 38.4973C9.08564 38.2907 8.7361 38.0554 8.26587 37.8945C7.61556 37.2705 7.0218 36.5882 6.48459 35.8626C7.16172 35.7633 7.79557 36.0557 8.34515 36.4246ZM11.8991 40.5506C12.6908 40.3911 13.1998 40.0427 13.638 39.7378L13.6512 39.7288C14.1104 39.4144 14.4225 39.2009 15.1507 39.2009C15.8556 39.2009 16.1686 39.4089 16.6314 39.7167L16.6634 39.7378L16.7002 39.7628C17.2736 40.151 17.9929 40.6377 19.3353 40.6377C20.6925 40.6377 21.4134 40.1443 22.0072 39.7378L22.0204 39.7288C22.4797 39.4144 22.7917 39.2009 23.5198 39.2009C24.2262 39.2009 24.5279 39.4018 24.9768 39.7008L25.0326 39.7378C25.4991 40.0572 26.0504 40.4346 26.9552 40.5797C24.7074 41.7698 22.1486 42.4375 19.4201 42.4375C16.7057 42.4375 14.1469 41.7554 11.8991 40.5506Z" fill="white"/>
<path d="M19.7265 7.88965C18.4571 7.88965 17.2294 8.0187 16.0297 8.27682C16.6017 9.05113 17.1876 9.76816 17.7595 10.5281C18.4013 10.4421 19.057 10.3991 19.7265 10.3991C23.3816 10.3991 26.7436 11.6466 29.436 13.7688C30.552 13.4821 31.403 13.3531 32.3377 13.0089C29.0454 9.82549 24.6092 7.88965 19.7265 7.88965Z" fill="white"/>
<path d="M122.834 26.6391C120.324 26.6391 118.234 26.1128 116.561 25.0599V22.2171C117.346 22.726 118.268 23.1384 119.326 23.4543C120.401 23.7701 121.434 23.9281 122.424 23.9281C123.943 23.9281 125.137 23.6385 126.008 23.0595C126.896 22.4628 127.339 21.6731 127.339 20.6906C127.339 19.8306 126.938 19.1375 126.136 18.6111C125.334 18.0847 124.276 17.8215 122.962 17.8215H120.734V15.163H123.295C124.387 15.163 125.232 14.9436 125.829 14.505C126.427 14.0663 126.725 13.4608 126.725 12.6888C126.725 11.9167 126.376 11.3201 125.675 10.8989C124.993 10.4602 124.054 10.2409 122.859 10.2409C120.948 10.2409 119.104 10.6883 117.329 11.5833V8.92483C119.087 7.9948 120.982 7.52979 123.013 7.52979C124.958 7.52979 126.529 7.98602 127.724 8.89851C128.918 9.81098 129.516 11.0217 129.516 12.5309C129.516 13.5311 129.225 14.3558 128.645 15.0051C128.065 15.6543 127.425 16.1018 126.725 16.3474C127.664 16.6282 128.484 17.1722 129.183 17.9794C129.883 18.7515 130.233 19.7342 130.233 20.9274C130.233 22.5769 129.567 23.9456 128.236 25.0336C126.922 26.104 125.121 26.6391 122.834 26.6391Z" fill="white"/>
<path d="M49.7255 26.297H46.9093V7.87207H49.7255V15.4L57.0733 7.87207H60.6831L52.3881 16.2949L62.0144 26.297H58.1741L49.7255 17.4531V26.297Z" fill="white"/>
<path fill-rule="evenodd" clip-rule="evenodd" d="M64.3605 26.297H67.1767V18.6902H72.0667C73.9442 18.6902 75.4034 18.1814 76.4446 17.1635C77.5198 16.1282 78.0575 14.8122 78.0575 13.2153C78.0575 11.6185 77.5198 10.3375 76.4446 9.3724C75.4034 8.37219 73.9442 7.87207 72.0667 7.87207H64.3605V26.297ZM67.1767 16.0317V10.5305H71.8362C72.9115 10.5305 73.7393 10.7674 74.3196 11.2412C74.917 11.7151 75.2157 12.3906 75.2157 13.268C75.2157 14.1454 74.917 14.8297 74.3196 15.321C73.7222 15.7948 72.8945 16.0317 71.8362 16.0317H67.1767Z" fill="white"/>
<path d="M81.2094 26.2181C81.7727 26.4989 82.6175 26.6393 83.7439 26.6393C85.8775 26.6393 87.5928 25.2091 88.8899 22.3489L95.4952 7.87207H92.4742L88.0707 17.8479L82.7711 7.87207H79.5964L86.6113 20.9275C86.0311 22.1559 85.5105 22.9631 85.0497 23.3491C84.5717 23.7352 83.9744 23.9282 83.2575 23.9282C82.5577 23.9282 81.875 23.779 81.2094 23.4807V26.2181Z" fill="white"/>
<path d="M98.188 26.297H100.595L110.502 12.7152V26.297H113.319V7.87207H110.861L101.004 21.4013V7.87207H98.188V26.297Z" fill="white"/>
<path d="M152.633 26.297H149.816V7.87207H152.633V26.297Z" fill="white"/>
<path fill-rule="evenodd" clip-rule="evenodd" d="M133.841 26.297H140.677C142.724 26.297 144.355 25.7444 145.566 24.6388C146.778 23.4983 147.384 22.0506 147.384 20.2958C147.384 18.506 146.786 17.0494 145.592 15.9264C144.397 14.8034 142.759 14.2419 140.677 14.2419H136.656V7.87207H133.841V26.297ZM136.656 23.6386V16.9003H140.523C141.769 16.9003 142.742 17.1987 143.441 17.7953C144.158 18.3919 144.517 19.2254 144.517 20.2958C144.517 21.3486 144.166 22.1734 143.467 22.77C142.767 23.3491 141.786 23.6386 140.523 23.6386H136.656Z" fill="white"/>
<path fill-rule="evenodd" clip-rule="evenodd" d="M171.087 17.3703C172.773 16.6151 173.973 14.8707 174.166 12.8954C174.44 10.0975 172.645 7.35393 169.811 7.07028C166.977 6.78662 164.684 9.1212 164.41 11.9191C164.277 13.2846 164.636 14.6371 165.367 15.697C164.747 16.0819 164.154 16.6497 163.589 17.4004C162.924 18.3129 162.591 19.3921 162.591 20.6379C162.591 22.5156 163.239 23.9896 164.537 25.06C165.834 26.1129 167.421 26.6392 169.299 26.6392C171.381 26.6392 173.207 25.99 174.777 24.6915L176.416 26.297H180L176.519 22.8226C177.798 20.9977 178.438 18.8394 178.438 16.3475H175.776C175.725 18.1726 175.323 19.6816 174.573 20.8749L171.087 17.3703ZM167.405 17.3942C167.445 17.411 167.484 17.4273 167.524 17.4431L172.908 22.849C171.953 23.7088 170.775 24.1387 169.376 24.1387C168.215 24.1387 167.25 23.8229 166.482 23.1912C165.715 22.5418 165.331 21.6732 165.331 20.5853C165.331 19.8483 165.536 19.1903 165.944 18.6112C166.36 18.0317 166.847 17.626 167.405 17.3942ZM169.546 9.77811C170.612 9.88486 171.631 11.0244 171.475 12.626C171.317 14.2277 170.097 15.1431 169.03 15.0364C167.964 14.9296 166.945 13.7902 167.101 12.1885C167.259 10.5868 168.479 9.67134 169.546 9.77811Z" fill="white"/>
<path d="M123.615 43.36C124.738 44.4533 126.148 44.9999 127.843 44.9999C129.029 44.9999 130.064 44.7265 130.948 44.1799V41.8487C130.147 42.5026 129.148 42.8295 127.952 42.8295C126.871 42.8295 125.981 42.4865 125.284 41.8005C124.577 41.1038 124.193 40.4447 124.193 39.3729C124.193 38.3011 124.551 37.5508 125.237 36.8648C125.945 36.1682 126.814 35.8198 127.843 35.8198C128.914 35.8198 129.872 36.1092 130.714 36.688V34.3568C129.851 33.8852 128.888 33.6494 127.827 33.6494C126.122 33.6494 124.707 34.196 123.584 35.2893C122.471 36.3825 121.9 37.658 121.9 39.3729C121.9 41.0664 122.492 42.2454 123.615 43.36Z" fill="white"/>
<path d="M46.9188 45.0001H49.1657V35.82H53.8308V45.0001H56.0621V33.7461H46.9188V45.0001Z" fill="white"/>
<path d="M61.257 45.0001C60.5081 45.0001 59.9567 44.8929 59.6031 44.6786L59.6384 42.8618C59.992 43.0655 60.4133 43.1673 60.9022 43.1673C61.3598 43.1673 61.724 43.06 61.9944 42.8457C62.2544 42.6421 62.5352 42.2294 62.8369 41.6078L58.7021 33.7461H61.183L63.9447 39.2766L66.3631 33.7461H68.7503L64.7249 42.5564C63.9135 44.3355 62.734 45.0001 61.257 45.0001Z" fill="white"/>
<path d="M70.5928 35.82V33.7461H79.7516V35.82H76.2878V45.0001H74.041V35.82H70.5928Z" fill="white"/>
<path d="M90.868 45.0001H82.6765V33.7461H90.6963V35.82H84.9233V37.9904H89.5729V40.0322H84.9233V42.9261H90.868V45.0001Z" fill="white"/>
<path d="M107.605 45.0001H93.9049V33.7461H96.1517V42.9261H99.6311V33.7461H101.862V42.9261H105.357V33.7461H107.605V45.0001Z" fill="white"/>
<path d="M119.466 45.0001H111.274V33.7461H119.294V35.82H113.521V37.9904H118.17V40.0322H113.521V42.9261H119.466V45.0001Z" fill="white"/>
<path d="M133.348 33.7461V35.82H136.796V45.0001H139.043V35.82H142.507V33.7461H133.348Z" fill="white"/>
<path fill-rule="evenodd" clip-rule="evenodd" d="M145.432 45.0001H150.924C152.089 45.0001 153.009 44.7054 153.686 44.1159C154.372 43.5264 154.716 42.7547 154.716 41.8007C154.716 40.9862 154.497 40.3163 154.06 39.7911C153.613 39.2551 153.093 38.9229 152.5 38.7943C152.895 38.6228 153.223 38.3441 153.483 37.9583C153.743 37.5725 153.873 37.1062 153.873 36.5595C153.873 35.67 153.571 34.9787 152.968 34.4856C152.375 33.9925 151.573 33.7461 150.565 33.7461H145.432V45.0001ZM147.678 43.0065V40.0644H150.503C151.065 40.0644 151.501 40.193 151.813 40.4503C152.125 40.7075 152.281 41.0719 152.281 41.5434C152.281 42.0151 152.125 42.3795 151.813 42.6367C151.501 42.8833 151.065 43.0065 150.503 43.0065H147.678ZM147.678 38.1512V35.6753H150.206C150.675 35.6753 151.039 35.7878 151.299 36.0129C151.568 36.2273 151.704 36.5327 151.704 36.9294C151.704 37.3152 151.568 37.6153 151.299 37.8297C151.039 38.044 150.675 38.1512 150.206 38.1512H147.678Z" fill="white"/>
<path d="M157.849 45.0001H159.737L165.088 37.6207V45.0001H167.32V33.7461H165.385L160.096 41.0772V33.7461H157.849V45.0001Z" fill="white"/>
<path fill-rule="evenodd" clip-rule="evenodd" d="M170.046 45.0001H172.636L175.85 40.4503H177.754V45.0001H180V33.7461H174.944C173.78 33.7461 172.865 34.0569 172.199 34.6785C171.522 35.2895 171.184 36.088 171.184 37.074C171.184 37.8243 171.382 38.4781 171.777 39.0355C172.183 39.5821 172.745 39.9679 173.463 40.193L170.046 45.0001ZM177.754 38.5049H175.069C174.56 38.5049 174.16 38.387 173.869 38.1512C173.588 37.9154 173.447 37.5778 173.447 37.1384C173.447 36.7096 173.588 36.3773 173.869 36.1416C174.16 35.895 174.56 35.7718 175.069 35.7718H177.754V38.5049Z" fill="white"/>
</g>
<defs>
<clipPath id="clip0_502_4184">
<rect width="180" height="45" fill="white"/>
</clipPath>
</defs>
</svg>
