<svg width="14" height="18" viewBox="0 0 14 18" fill="none" xmlns="http://www.w3.org/2000/svg">
<path d="M8.48077 9.12894C8.00961 9.27794 7.51603 9.35244 7 9.35244C6.48397 9.35244 5.99038 9.27221 5.51923 9.11175C3.80734 8.51452 3.49447 8.17404 2.08654 9.83381C1.64904 10.3381 1.27324 10.894 0.959135 11.5014C0.65625 12.0974 0.420673 12.7335 0.252404 13.4097C0.0841346 14.086 0 14.7851 0 15.5072C0 15.5415 0 15.5817 0 15.6275C0 15.6619 0 15.6963 0 15.7307C0 15.8109 0 15.8968 0 15.9885C0 16.0688 0 16.1547 0 16.2464C0.0112179 16.3725 0.0560897 16.4814 0.134615 16.5731C0.213141 16.6648 0.314103 16.7221 0.4375 16.745C0.852564 16.9169 1.3125 17.0774 1.81731 17.2264C2.3109 17.3754 2.83253 17.5014 3.38221 17.6046C3.94311 17.7192 4.52644 17.8109 5.13221 17.8797C5.72676 17.9484 6.33814 17.9885 6.96635 18C7.51603 18 8.07131 17.9713 8.63221 17.914C9.20433 17.8567 9.77083 17.7708 10.3317 17.6562C10.9038 17.553 11.4704 17.4212 12.0312 17.2607C12.5921 17.1003 13.1418 16.9169 13.6803 16.7106C13.7252 16.7106 13.7812 16.6648 13.8486 16.5731C13.9271 16.4814 13.972 16.3725 13.9832 16.2464C13.9832 16.1547 13.9832 16.0688 13.9832 15.9885C13.9832 15.8968 13.9832 15.8052 13.9832 15.7135C13.9832 15.6791 13.9832 15.6447 13.9832 15.6103C13.9944 15.5759 14 15.5358 14 15.49C14 14.7679 13.9159 14.0688 13.7476 13.3925C13.5793 12.7278 13.3381 12.0974 13.024 11.5014C12.7212 10.894 12.351 10.3381 11.9135 9.83381C10.5142 8.17841 10.1886 8.54731 8.48077 9.12894ZM7.01683 8.37249C7.57772 8.37249 8.09936 8.26361 8.58173 8.04585C9.07532 7.81662 9.50721 7.51862 9.8774 7.15186C10.2476 6.77364 10.5393 6.33238 10.7524 5.82808C10.9655 5.32378 11.0721 4.7851 11.0721 4.21203C11.0721 3.62751 10.9655 3.08309 10.7524 2.5788C10.528 2.06304 10.2308 1.61605 9.86058 1.23782C9.49039 0.859599 9.05289 0.555874 8.54808 0.326648C8.05449 0.108883 7.52163 0 6.94952 0C6.3774 0 5.84455 0.108883 5.35096 0.326648C4.84615 0.555874 4.40304 0.859599 4.02163 1.23782C3.65144 1.61605 3.35978 2.06304 3.14663 2.5788C2.93349 3.08309 2.82692 3.62751 2.82692 4.21203C2.82692 4.7851 2.93349 5.32378 3.14663 5.82808C3.37099 6.34384 3.66827 6.79083 4.03846 7.16905C4.40865 7.53582 4.84054 7.82808 5.33413 8.04585C5.82772 8.26361 6.36058 8.37249 6.93269 8.37249C6.94391 8.37249 6.95513 8.37249 6.96635 8.37249C6.98878 8.37249 7.00561 8.37249 7.01683 8.37249Z" fill="#1981DC"/>
</svg>
