<svg width="11" height="14" viewBox="0 0 11 14" fill="none" xmlns="http://www.w3.org/2000/svg">
<path d="M6.66346 7.10029C6.29327 7.21617 5.90545 7.27412 5.5 7.27412C5.09455 7.27412 4.70673 7.21172 4.33654 7.08692C2.99148 6.6224 2.74565 6.35758 1.63942 7.64852C1.29567 8.04075 1.0004 8.4731 0.753606 8.94556C0.515625 9.40911 0.330529 9.90385 0.198317 10.4298C0.0661058 10.9557 0 11.4995 0 12.0611C0 12.0879 0 12.1191 0 12.1547C0 12.1815 0 12.2082 0 12.235C0 12.2974 0 12.3642 0 12.4355C0 12.4979 0 12.5648 0 12.6361C0.0088141 12.7342 0.0440705 12.8188 0.105769 12.8902C0.167468 12.9615 0.246795 13.006 0.34375 13.0239C0.669872 13.1576 1.03125 13.2824 1.42788 13.3983C1.81571 13.5142 2.22556 13.6122 2.65745 13.6925C3.09816 13.7816 3.55649 13.8529 4.03245 13.9064C4.4996 13.9599 4.97997 13.9911 5.47356 14C5.90545 14 6.34175 13.9777 6.78245 13.9331C7.23197 13.8886 7.67708 13.8217 8.11779 13.7326C8.56731 13.6523 9.01242 13.5498 9.45312 13.425C9.89383 13.3002 10.3257 13.1576 10.7488 12.9971C10.7841 12.9971 10.8281 12.9615 10.881 12.8902C10.9427 12.8188 10.978 12.7342 10.9868 12.6361C10.9868 12.5648 10.9868 12.4979 10.9868 12.4355C10.9868 12.3642 10.9868 12.2929 10.9868 12.2216C10.9868 12.1948 10.9868 12.1681 10.9868 12.1414C10.9956 12.1146 11 12.0834 11 12.0478C11 11.4862 10.9339 10.9424 10.8017 10.4164C10.6695 9.89939 10.48 9.40911 10.2332 8.94556C9.99519 8.4731 9.70433 8.04075 9.36058 7.64852C8.26112 6.36099 8.00534 6.64791 6.66346 7.10029ZM5.51322 6.51194C5.95393 6.51194 6.36378 6.42725 6.74279 6.25788C7.13061 6.07959 7.46995 5.84782 7.76082 5.56256C8.05168 5.26839 8.28085 4.92518 8.44832 4.53295C8.61579 4.14072 8.69952 3.72174 8.69952 3.27603C8.69952 2.82139 8.61579 2.39796 8.44832 2.00573C8.27204 1.60458 8.03846 1.25692 7.7476 0.962751C7.45673 0.668577 7.11298 0.432346 6.71635 0.254059C6.32853 0.0846864 5.90986 0 5.46034 0C5.01082 0 4.59215 0.0846864 4.20433 0.254059C3.80769 0.432346 3.45954 0.668577 3.15986 0.962751C2.86899 1.25692 2.63982 1.60458 2.47236 2.00573C2.30489 2.39796 2.22115 2.82139 2.22115 3.27603C2.22115 3.72174 2.30489 4.14072 2.47236 4.53295C2.64864 4.9341 2.88221 5.28176 3.17308 5.57593C3.46394 5.86119 3.80329 6.08851 4.19111 6.25788C4.57893 6.42725 4.9976 6.51194 5.44712 6.51194C5.45593 6.51194 5.46474 6.51194 5.47356 6.51194C5.49119 6.51194 5.50441 6.51194 5.51322 6.51194Z" fill="white"/>
</svg>
