<svg width="38" height="44" viewBox="0 0 38 44" fill="none" xmlns="http://www.w3.org/2000/svg">
<path d="M19.3258 6.39121C18.0454 6.39121 16.8073 6.51904 15.5972 6.77469C16.1741 7.54163 16.765 8.25177 17.3419 9.00451C17.9891 8.91929 18.6504 8.87669 19.3258 8.87669C23.0121 8.87669 26.4029 10.1123 29.1184 12.2143C30.244 11.9303 31.1022 11.8024 32.0449 11.4616C28.7244 8.30858 24.2502 6.39121 19.3258 6.39121Z" fill="white"/>
<path d="M33.1282 33.774C32.6639 33.6178 32.0589 33.561 31.7353 33.561C30.3846 33.561 29.6671 34.0439 29.0761 34.4416C28.6118 34.754 28.3023 34.9671 27.5707 34.9671C26.839 34.9671 26.5436 34.754 26.0652 34.4416C25.4883 34.0581 24.7707 33.561 23.406 33.561C22.0553 33.561 21.3377 34.0439 20.7468 34.4416C20.2825 34.754 19.9729 34.9671 19.2413 34.9671C18.5237 34.9671 18.2142 34.754 17.7358 34.4416C17.159 34.0581 16.4414 33.561 15.0766 33.561C13.7259 33.561 13.0084 34.0439 12.4174 34.4416C11.9531 34.754 11.6436 34.9671 10.912 34.9671C10.1803 34.9671 9.88485 34.754 9.40648 34.4416C8.82961 34.0581 8.11205 33.561 6.74728 33.561C6.19855 33.561 5.84681 33.7172 5.62169 33.8877C4.04587 31.3738 3.1454 28.3912 3.1454 25.1956C3.1454 20.0684 5.48099 15.5094 9.13915 12.5126C8.52008 11.9445 7.91507 11.4332 7.23972 10.8651C3.24388 14.3305 0.697243 19.4577 0.697243 25.1956C0.697243 35.592 9.04066 44 19.3257 44C26.0792 44 32.0026 40.3783 35.2528 34.9387C34.5634 34.5126 33.9161 34.0439 33.1282 33.774ZM6.691 35.0949C6.70507 35.0949 6.73321 35.0949 6.74728 35.0949C7.46484 35.0949 7.77437 35.3079 8.25275 35.6204C8.82961 36.0039 9.54717 36.501 10.912 36.501C12.2627 36.501 12.9802 36.0181 13.5712 35.6204C14.0355 35.3079 14.345 35.0949 15.0766 35.0949C15.7942 35.0949 16.1037 35.3079 16.5821 35.6204C17.159 36.0039 17.8765 36.501 19.2413 36.501C20.592 36.501 21.3096 36.0181 21.9005 35.6204C22.3648 35.3079 22.6743 35.0949 23.406 35.0949C24.1376 35.0949 24.4331 35.3079 24.9114 35.6204C25.4883 36.0039 26.2059 36.501 27.5707 36.501C28.9214 36.501 29.6389 36.0181 30.2298 35.6204C30.6942 35.3079 31.0037 35.0949 31.7353 35.0949C31.876 35.0949 32.0589 35.0807 32.27 35.0665C31.7635 35.7482 31.2147 36.3731 30.6097 36.9697C29.9344 37.1401 29.4701 37.4525 29.0761 37.7224C28.6118 38.0349 28.3023 38.2479 27.5707 38.2479C26.839 38.2479 26.5436 38.0349 26.0652 37.7224C25.4883 37.3389 24.7707 36.8418 23.406 36.8418C22.0553 36.8418 21.3377 37.3247 20.7468 37.7224C20.2825 38.0349 19.9729 38.2479 19.2413 38.2479C18.5237 38.2479 18.2142 38.0349 17.7358 37.7224C17.159 37.3389 16.4414 36.8418 15.0766 36.8418C13.7259 36.8418 13.0084 37.3247 12.4174 37.7224C11.9531 38.0349 11.6436 38.2479 10.912 38.2479C10.1803 38.2479 9.88485 38.0349 9.40648 37.7224C9.08287 37.5094 8.71705 37.2537 8.21054 37.0833C7.56333 36.4726 6.97239 35.805 6.43774 35.0949C6.53623 35.0807 6.62065 35.0949 6.691 35.0949ZM11.8406 39.6824C12.6285 39.5261 13.135 39.1853 13.5712 38.887C14.0355 38.5746 14.345 38.3615 15.0766 38.3615C15.7942 38.3615 16.1037 38.5746 16.5821 38.887C17.159 39.2705 17.8765 39.7676 19.2413 39.7676C20.592 39.7676 21.3096 39.2847 21.9005 38.887C22.3648 38.5746 22.6743 38.3615 23.406 38.3615C24.1376 38.3615 24.4331 38.5746 24.9114 38.887C25.3758 39.1995 25.9245 39.5688 26.8249 39.7108C24.5878 40.8754 22.0412 41.5287 19.3257 41.5287C16.6243 41.5287 14.0777 40.8612 11.8406 39.6824Z" fill="white"/>
<path d="M0.473102 1.19303C1.13438 2.03099 10.4346 10.7088 10.4346 10.7088C10.4346 10.7088 11.3772 11.1917 12.0526 13.5494C12.6294 15.552 14.0364 20.7644 14.5992 22.3409C14.2334 22.5823 14.0083 22.8238 14.0364 23.1078C12.8264 23.4345 10.8707 24.031 10.3079 24.5849C9.4778 25.4087 15.3027 24.7837 17.6102 25.295C18.1308 25.4087 18.6795 25.4371 19.2423 25.3945L19.1579 25.4371L24.631 26.5165L26.2209 28.4196L26.3475 28.2066L25.3908 26.2182C25.6581 25.3234 24.42 23.2925 23.7306 22.5113C23.5758 22.1278 23.3788 21.8296 23.3788 21.8296C23.3788 21.8296 24.617 20.04 25.9114 19.0174C27.1495 18.5914 33.7624 14.7566 33.7624 14.7566C33.7624 14.7566 36.1542 11.6604 37.4346 9.97031C38.7149 8.26598 37.4205 8.94771 37.4205 8.94771L32.7493 13.3506C32.7493 13.3506 26.0099 15.7792 23.9557 16.3473C22.2392 16.816 20.4523 18.4777 19.6644 19.5145L16.4424 12.5552C16.0343 11.5042 16.0343 11.5042 16.0343 11.5042C16.0343 11.5042 15.4293 9.34539 13.6425 8.22337C11.8556 7.10136 0.0369364 0 0.0369364 0C0.0369364 0 -0.188181 0.355068 0.473102 1.19303Z" fill="white"/>
</svg>
