<svg width="20" height="20" viewBox="0 0 20 20" fill="none" xmlns="http://www.w3.org/2000/svg">
<g clip-path="url(#clip0_502_4220)">
<path fill-rule="evenodd" clip-rule="evenodd" d="M12.8153 12.0203C12.557 12.1542 12.3127 12.3161 12.0871 12.5041L11.1269 11.3516C11.4363 11.0938 11.7713 10.872 12.1249 10.6887L12.8153 12.0203ZM11.4803 13.1327C11.3916 13.2472 11.3083 13.3674 11.2309 13.4931L10.9979 13.8717L9.72041 13.0856L9.95339 12.707C10.0591 12.5352 10.1731 12.3707 10.2947 12.2139L11.4803 13.1327ZM14.4945 11.5691C14.2012 11.5827 13.9116 11.6282 13.6307 11.7037L13.2413 10.2551C13.626 10.1517 14.0228 10.0894 14.4251 10.0707L14.4945 11.5691ZM10.5319 14.6289L10.299 15.0075C10.1951 15.1763 10.0852 15.3407 9.96948 15.5004L8.75458 14.6206C8.84828 14.4912 8.93733 14.3581 9.02148 14.2213L9.25446 13.8427L10.5319 14.6289ZM9.20436 16.4053C8.92702 16.6874 8.62887 16.9482 8.31245 17.1856L7.41232 15.9857C7.66864 15.7934 7.91016 15.5821 8.13482 15.3536L9.20436 16.4053Z" fill="#1981DC"/>
<path fill-rule="evenodd" clip-rule="evenodd" d="M20 4C20 6.20914 16 12 16 12L15.7989 11.7033L15.3665 11.6235L15.445 11.1681C14.3464 9.48491 12 5.69196 12 4C12 1.79086 13.7909 0 16 0C18.2091 0 20 1.79086 20 4ZM16 6C16.9468 6 17.7143 5.19411 17.7143 4.2C17.7143 3.20589 16.9468 2.4 16 2.4C15.0532 2.4 14.2857 3.20589 14.2857 4.2C14.2857 5.19411 15.0532 6 16 6Z" fill="#1981DC"/>
<path fill-rule="evenodd" clip-rule="evenodd" d="M4 20C4 20 0 14.2091 0 12C0 9.79086 1.79086 8 4 8C6.20914 8 8 9.79086 8 12C8 13.0936 7.01968 15.0651 6.02966 16.7772C6.2236 16.691 6.41634 16.603 6.6034 16.5025L7.3138 17.8236C7.1401 17.917 6.96253 18.0041 6.78141 18.0846L6.16224 18.3598L5.70456 17.3302C5.39741 17.8444 5.09976 18.3209 4.84146 18.7248L4.9239 18.9102L4.64102 19.036C4.25713 19.6277 4 20 4 20ZM4 14C4.94677 14 5.71429 13.1941 5.71429 12.2C5.71429 11.2059 4.94677 10.4 4 10.4C3.05323 10.4 2.28571 11.2059 2.28571 12.2C2.28571 13.1941 3.05323 14 4 14Z" fill="#1981DC"/>
</g>
<defs>
<clipPath id="clip0_502_4220">
<rect width="20" height="20" fill="white"/>
</clipPath>
</defs>
</svg>
